<svg width="741" height="535" viewBox="0 0 741 535" fill="none" xmlns="http://www.w3.org/2000/svg">
<path d="M646 263.504C646 228.901 639.133 194.635 625.79 162.666C612.447 130.696 592.891 101.647 568.237 77.1786C543.583 52.71 514.314 33.3004 482.102 20.0581C449.89 6.81573 415.366 -5.63769e-06 380.5 0C345.634 5.63769e-06 311.109 6.81575 278.897 20.0581C246.686 33.3004 217.417 52.71 192.763 77.1787C168.109 101.647 148.553 130.696 135.21 162.666C121.867 194.636 115 228.901 115 263.504L380.5 263.504H646Z" fill="#C8F5FF"/>
<path d="M606 267.003C606 237.577 600.167 208.439 588.835 181.252C577.502 154.066 560.892 129.364 539.953 108.556C519.013 87.7484 494.154 71.2429 466.795 59.9819C439.436 48.7209 410.113 42.9249 380.5 42.9249C350.887 42.9249 321.564 48.7209 294.205 59.9819C266.846 71.2429 241.987 87.7484 221.047 108.556C200.108 129.364 183.498 154.066 172.165 181.252C160.833 208.439 155 237.577 155 267.003L380.5 267.003H606Z" fill="white"/>
<ellipse cx="381" cy="294.679" rx="171" ry="170.679" fill="#FACE03"/>
<ellipse cx="380.5" cy="302.504" rx="132.5" ry="131.752" fill="#F6914E"/>
<path d="M584.777 383.038C607.797 422.271 598.68 470.314 564.412 490.346C530.145 510.378 483.703 494.812 460.683 455.579C437.662 416.346 446.779 368.302 481.047 348.271C515.315 328.239 561.756 343.805 584.777 383.038Z" fill="white"/>
<path d="M654.842 255.427C702.152 286.59 719.421 343.745 693.414 383.087C667.406 422.428 607.971 429.057 560.662 397.894C513.352 366.73 496.083 309.575 522.09 270.234C548.097 230.892 607.532 224.263 654.842 255.427Z" fill="white"/>
<path d="M347.6 457.919C331.516 500.468 288.396 523.535 251.291 509.439C214.185 495.343 197.143 449.422 213.228 406.872C229.312 364.323 272.431 341.256 309.537 355.352C346.643 369.448 363.684 415.369 347.6 457.919Z" fill="white"/>
<path d="M230.153 429.667C195.321 458.922 150.275 462.559 129.541 437.79C108.808 413.021 120.237 369.226 155.07 339.971C189.903 310.716 234.948 307.079 255.682 331.848C276.416 356.617 264.986 400.412 230.153 429.667Z" fill="white"/>
<path d="M204.881 364.997C174.015 417.203 115.719 439.778 74.6739 415.42C33.6285 391.062 25.3762 328.995 56.242 276.788C87.1077 224.582 145.403 202.007 186.449 226.365C227.494 250.723 235.746 312.79 204.881 364.997Z" fill="white"/>
<path d="M491.511 486.977C490.453 452.186 482.471 406.012 461.954 381.597C441.436 357.181 409.928 340.575 381.484 340.258C353.039 339.941 317.317 356.932 296.932 380.892C276.548 404.852 273.155 449.765 272.287 484.535L382.033 486.51L491.511 486.977Z" fill="white"/>
<path d="M458 216.641C436.073 240.971 413.446 248.581 379.088 248.581C344.729 248.581 321.593 239.473 304 218.513" stroke="#605C5C" stroke-width="6" stroke-linecap="round" stroke-linejoin="round"/>
<mask id="path-12-inside-1" fill="white">
<path d="M369.995 198.5C371.102 198.5 372.01 199.4 371.908 200.502C371.497 204.938 369.73 209.107 366.874 212.289C363.592 215.946 359.141 218 354.5 218C349.859 218 345.408 215.946 342.126 212.289C339.27 209.107 337.503 204.938 337.092 200.502C336.99 199.4 337.898 198.5 339.005 198.5V198.5C340.112 198.5 340.997 199.401 341.129 200.5C341.521 203.748 342.858 206.786 344.961 209.13C347.491 211.949 350.922 213.532 354.5 213.532C358.078 213.532 361.509 211.949 364.039 209.13C366.142 206.786 367.479 203.748 367.871 200.5C368.003 199.401 368.888 198.5 369.995 198.5V198.5Z"/>
</mask>
<path d="M369.995 198.5C371.102 198.5 372.01 199.4 371.908 200.502C371.497 204.938 369.73 209.107 366.874 212.289C363.592 215.946 359.141 218 354.5 218C349.859 218 345.408 215.946 342.126 212.289C339.27 209.107 337.503 204.938 337.092 200.502C336.99 199.4 337.898 198.5 339.005 198.5V198.5C340.112 198.5 340.997 199.401 341.129 200.5C341.521 203.748 342.858 206.786 344.961 209.13C347.491 211.949 350.922 213.532 354.5 213.532C358.078 213.532 361.509 211.949 364.039 209.13C366.142 206.786 367.479 203.748 367.871 200.5C368.003 199.401 368.888 198.5 369.995 198.5V198.5Z" fill="#605C5C" stroke="#605C5C" stroke-width="12" mask="url(#path-12-inside-1)"/>
<path d="M416.995 198.5C418.102 198.5 419.01 199.4 418.908 200.502C418.497 204.938 416.73 209.107 413.874 212.289C410.592 215.946 406.141 218 401.5 218C396.859 218 392.408 215.946 389.126 212.289C386.27 209.107 384.503 204.938 384.092 200.502C383.99 199.4 384.898 198.5 386.005 198.5V198.5C387.112 198.5 387.997 199.401 388.129 200.5C388.521 203.748 389.858 206.786 391.961 209.13C394.491 211.949 397.922 213.532 401.5 213.532C405.078 213.532 408.509 211.949 411.039 209.13C413.142 206.786 414.479 203.748 414.871 200.5C415.003 199.401 415.888 198.5 416.995 198.5V198.5Z" fill="#605C5C"/>
</svg>
