<svg width="428" height="347" viewBox="0 0 428 347" fill="none" xmlns="http://www.w3.org/2000/svg">
<path d="M277 232C294.5 243.632 329.629 238.69 391.689 239.632C476.5 229 323.5 213 339.5 213" stroke="#4592D1" stroke-width="19"/>
<rect x="18" y="290" width="118" height="24.2" fill="#73B5EC"/>
<path d="M154.59 223.663C156.099 220.916 160.037 220.892 161.579 223.621L209.007 307.594C210.508 310.251 208.599 313.543 205.548 313.561L111.692 314.118C108.64 314.136 106.693 310.867 108.162 308.192L154.59 223.663Z" fill="#4592D1"/>
<path d="M275.077 309.307C273.309 313.249 267.712 313.246 265.95 309.301L232.605 234.657C231.127 231.349 233.55 227.615 237.174 227.618L303.969 227.665C307.593 227.668 310.01 231.404 308.527 234.711L275.077 309.307Z" fill="#4592D1"/>
<path d="M233.863 123.983C231.14 128.664 224.36 128.612 221.709 123.89L176.971 44.1975C174.34 39.5104 177.754 33.7296 183.129 33.7711L273.83 34.4712C279.205 34.5127 282.529 40.3456 279.826 44.9915L233.863 123.983Z" fill="#4592D1"/>
<rect x="148" y="88" width="160" height="142" rx="10" fill="#73B5EC"/>
<ellipse cx="153" cy="159" rx="76" ry="71" fill="#73B5EC"/>
<path d="M372 159C372 198.212 337.75 230 295.5 230C253.25 230 219 198.212 219 159C219 119.788 253.25 88 295.5 88C337.75 88 372 119.788 372 159Z" fill="#73B5EC"/>
<rect width="42.22" height="13.7425" rx="1" transform="matrix(0.000600427 1 -0.999994 0.00339957 22.7425 272)" fill="#4592D1"/>
<ellipse rx="20.2563" ry="6.87451" transform="matrix(0.000600427 1 -0.999994 0.00339957 15.8866 275.28)" fill="#4592D1"/>
<path d="M160.735 150C162.538 150 164.019 151.466 163.82 153.258C163.098 159.751 160.237 165.841 155.653 170.506C150.308 175.945 143.059 179 135.5 179C127.941 179 120.692 175.945 115.347 170.506C110.763 165.841 107.902 159.751 107.18 153.258C106.981 151.466 108.462 150 110.265 150V150C112.068 150 113.505 151.469 113.763 153.254C114.447 157.979 116.606 162.39 119.965 165.808C124.085 170.001 129.673 172.356 135.5 172.356C141.327 172.356 146.915 170.001 151.035 165.808C154.394 162.39 156.553 157.979 157.237 153.254C157.495 151.469 158.932 150 160.735 150V150Z" fill="#434040" fill-opacity="0.6"/>
<path d="M232.735 150C234.538 150 236.019 151.466 235.82 153.258C235.098 159.751 232.237 165.841 227.653 170.506C222.308 175.945 215.059 179 207.5 179C199.941 179 192.692 175.945 187.347 170.506C182.763 165.841 179.902 159.751 179.18 153.258C178.981 151.466 180.462 150 182.265 150V150C184.068 150 185.505 151.469 185.763 153.254C186.447 157.979 188.606 162.39 191.965 165.808C196.085 170.001 201.673 172.356 207.5 172.356C213.327 172.356 218.915 170.001 223.035 165.808C226.394 162.39 228.553 157.979 229.237 153.254C229.495 151.469 230.932 150 232.735 150V150Z" fill="#434040" fill-opacity="0.6"/>
<path d="M184 187C180.298 193.855 176.478 196 170.677 196C164.876 196 160.97 193.434 158 187.527" stroke="#434040" stroke-opacity="0.6" stroke-width="7" stroke-linecap="round" stroke-linejoin="round"/>
<rect x="162" y="230" width="112" height="84" rx="5" fill="#4592D1"/>
<path d="M152.5 265C150.098 269.044 141.366 275 127.712 275C114.058 275 103.978 270.956 102 268" stroke="#E7E7E7" stroke-width="4" stroke-linecap="round"/>
<path d="M152.5 265C155.5 260.5 163.711 255.376 177.5 255.5C191.289 255.624 201 265.5 204.5 267.5" stroke="#E7E7E7" stroke-width="4" stroke-linecap="round"/>
<path d="M255 266C252.5 269 243.366 275 229.712 275C216.058 275 204 267.5 202 266" stroke="#E7E7E7" stroke-width="4" stroke-linecap="round"/>
<path d="M254.5 266.5C257.5 263.5 265.846 255.377 279.5 255.5C293.154 255.623 312.049 270.527 314 273.5" stroke="#E7E7E7" stroke-width="4" stroke-linecap="round"/>
<path d="M152.5 279.724C150.098 283.769 141.366 289.724 127.712 289.724C114.058 289.724 103.978 285.68 102 282.724" stroke="#E7E7E7" stroke-width="4" stroke-linecap="round"/>
<path d="M152.5 279.724C155.5 275.224 163.711 270.1 177.5 270.224C191.289 270.348 201 280.224 204.5 282.224" stroke="#E7E7E7" stroke-width="4" stroke-linecap="round"/>
<path d="M255 280.724C252.5 283.724 243.366 289.724 229.712 289.724C216.058 289.724 204 282.224 202 280.724" stroke="#E7E7E7" stroke-width="4" stroke-linecap="round"/>
<path d="M254.5 281.224C257.5 278.224 265.846 270.101 279.5 270.224C293.154 270.347 312.049 285.251 314 288.224" stroke="#E7E7E7" stroke-width="4" stroke-linecap="round"/>
<rect x="302.535" y="197" width="65" height="19.3051" rx="1" transform="rotate(9.73121 302.535 197)" fill="#73B5EC"/>
<rect x="9" y="314" width="316" height="20" fill="#EAE1D9"/>
<ellipse cx="11.5" cy="324" rx="11.5" ry="10" fill="#EAE1D9"/>
<ellipse cx="321.5" cy="324" rx="11.5" ry="10" fill="#EAE1D9"/>
</svg>
