<svg width="674" height="541" viewBox="0 0 674 541" fill="none" xmlns="http://www.w3.org/2000/svg">
<path d="M605 263.504C605 228.901 598.133 194.635 584.79 162.666C571.447 130.696 551.891 101.647 527.237 77.1786C502.583 52.71 473.314 33.3004 441.102 20.0581C408.89 6.81573 374.366 -5.63769e-06 339.5 0C304.634 5.63769e-06 270.109 6.81575 237.897 20.0581C205.686 33.3004 176.417 52.71 151.763 77.1787C127.109 101.647 107.553 130.696 94.21 162.666C80.8673 194.636 74 228.901 74 263.504L339.5 263.504H605Z" fill="#C8F5FF"/>
<path d="M565 264.003C565 234.577 559.167 205.439 547.835 178.252C536.502 151.066 519.892 126.364 498.953 105.556C478.013 84.7484 453.154 68.2429 425.795 56.9819C398.436 45.7209 369.113 39.9249 339.5 39.9249C309.887 39.9249 280.564 45.7209 253.205 56.9819C225.846 68.2429 200.987 84.7484 180.047 105.556C159.108 126.364 142.498 151.066 131.165 178.252C119.833 205.439 114 234.577 114 264.003L339.5 264.003H565Z" fill="white"/>
<ellipse cx="340" cy="291.5" rx="190" ry="181.5" fill="#FACE03"/>
<ellipse cx="341" cy="299.5" rx="157" ry="139.5" fill="#F6914E"/>
<ellipse rx="48.3938" ry="80.0248" transform="matrix(0.857089 0.515169 -0.516592 0.856232 197.912 383.971)" fill="white"/>
<ellipse rx="84.7502" ry="94.4789" transform="matrix(0.482139 0.876095 -0.876858 0.480749 123.706 327.279)" fill="white"/>
<ellipse rx="72.4156" ry="94.4789" transform="matrix(0.980526 0.196387 -0.197942 0.980214 273.707 433.831)" fill="white"/>
<ellipse rx="81.3539" ry="88.6215" transform="matrix(0.796232 -0.604992 0.606433 0.795135 554.52 327.294)" fill="white"/>
<path d="M482.895 392.057C503.977 427.987 500.088 469.379 474.207 484.507C448.327 499.636 410.256 482.773 389.173 446.843C368.091 410.913 371.98 369.522 397.861 354.393C423.741 339.264 461.812 356.127 482.895 392.057Z" fill="white"/>
<path d="M559.723 354.867C588.191 403.382 582.939 459.272 547.993 479.7C513.047 500.128 461.641 477.359 433.173 428.843C404.706 380.328 409.958 324.438 444.904 304.01C479.849 283.582 531.256 306.351 559.723 354.867Z" fill="white"/>
<path d="M450.419 478.098C449.614 451.63 441.97 416.55 421.635 398.119C401.3 379.688 369.919 367.279 341.483 367.244C313.047 367.208 277.209 380.397 256.655 398.778C236.101 417.159 232.382 451.362 231.261 477.828L340.969 478.535L450.419 478.098Z" fill="white"/>
<path d="M401 214C382.49 234.566 363.39 241 334.386 241C305.382 241 285.851 233.301 271 215.582" stroke="#605C5C" stroke-width="6" stroke-linecap="round" stroke-linejoin="round"/>
<mask id="path-13-inside-1" fill="white">
<path d="M324.995 195.5C326.102 195.5 327.01 196.4 326.908 197.502C326.497 201.938 324.73 206.107 321.874 209.289C318.592 212.946 314.141 215 309.5 215C304.859 215 300.408 212.946 297.126 209.289C294.27 206.107 292.503 201.938 292.092 197.502C291.99 196.4 292.898 195.5 294.005 195.5V195.5C295.112 195.5 295.997 196.401 296.129 197.5C296.521 200.748 297.858 203.786 299.961 206.13C302.491 208.949 305.922 210.532 309.5 210.532C313.078 210.532 316.509 208.949 319.039 206.13C321.142 203.786 322.479 200.748 322.871 197.5C323.003 196.401 323.888 195.5 324.995 195.5V195.5Z"/>
</mask>
<path d="M324.995 195.5C326.102 195.5 327.01 196.4 326.908 197.502C326.497 201.938 324.73 206.107 321.874 209.289C318.592 212.946 314.141 215 309.5 215C304.859 215 300.408 212.946 297.126 209.289C294.27 206.107 292.503 201.938 292.092 197.502C291.99 196.4 292.898 195.5 294.005 195.5V195.5C295.112 195.5 295.997 196.401 296.129 197.5C296.521 200.748 297.858 203.786 299.961 206.13C302.491 208.949 305.922 210.532 309.5 210.532C313.078 210.532 316.509 208.949 319.039 206.13C321.142 203.786 322.479 200.748 322.871 197.5C323.003 196.401 323.888 195.5 324.995 195.5V195.5Z" fill="#605C5C" stroke="#605C5C" stroke-width="12" mask="url(#path-13-inside-1)"/>
<path d="M375.995 195.5C377.102 195.5 378.01 196.4 377.908 197.502C377.497 201.938 375.73 206.107 372.874 209.289C369.592 212.946 365.141 215 360.5 215C355.859 215 351.408 212.946 348.126 209.289C345.27 206.107 343.503 201.938 343.092 197.502C342.99 196.4 343.898 195.5 345.005 195.5V195.5C346.112 195.5 346.997 196.401 347.129 197.5C347.521 200.748 348.858 203.786 350.961 206.13C353.491 208.949 356.922 210.532 360.5 210.532C364.078 210.532 367.509 208.949 370.039 206.13C372.142 203.786 373.479 200.748 373.871 197.5C374.003 196.401 374.888 195.5 375.995 195.5V195.5Z" fill="#605C5C"/>
</svg>
