<svg width="913" height="279" viewBox="0 0 913 279" fill="none" xmlns="http://www.w3.org/2000/svg">
<rect width="913" height="279" rx="10" fill="#F2F2F2"/>
<path d="M439.991 38.5C442.205 38.5 444.02 40.2993 443.81 42.5036C442.98 51.2431 439.449 59.4534 433.749 65.7236C427.185 72.9438 418.283 77 409 77C399.717 77 390.815 72.9438 384.251 65.7236C378.551 59.4534 375.02 51.2431 374.19 42.5036C373.98 40.2993 375.795 38.5 378.009 38.5V38.5C380.224 38.5 381.993 40.302 382.265 42.4996C383.055 48.8941 385.726 54.8719 389.921 59.4865C394.981 65.0525 401.844 68.1794 409 68.1794C416.156 68.1794 423.019 65.0525 428.079 59.4865C432.274 54.8718 434.945 48.8941 435.735 42.4996C436.007 40.302 437.776 38.5 439.991 38.5V38.5Z" fill="#434040" fill-opacity="0.6"/>
<path d="M535.22 38.5C537.308 38.5 539.017 40.1955 538.841 42.2759C538.096 51.1004 534.756 59.399 529.335 65.7236C523.146 72.9438 514.752 77 506 77C497.248 77 488.854 72.9438 482.665 65.7236C477.244 59.399 473.904 51.1004 473.159 42.2759C472.983 40.1955 474.692 38.5 476.78 38.5V38.5C478.868 38.5 480.539 40.1976 480.767 42.2729C481.479 48.7527 484.009 54.8174 488.012 59.4865C492.782 65.0525 499.253 68.1794 506 68.1794C512.747 68.1794 519.218 65.0525 523.988 59.4865C527.991 54.8174 530.521 48.7527 531.233 42.2729C531.461 40.1976 533.132 38.5 535.22 38.5V38.5Z" fill="#434040" fill-opacity="0.6"/>
<path d="M481.318 88C488.322 88 494.204 93.9448 491.145 100.246V100.246C489.261 104.128 486.499 107.656 483.017 110.627C479.534 113.599 475.4 115.956 470.851 117.564C466.301 119.172 461.425 120 456.5 120C451.575 120 446.699 119.172 442.149 117.564C437.6 115.956 433.466 113.599 429.983 110.627C426.501 107.656 423.739 104.128 421.855 100.246V100.246C418.796 93.9448 424.678 88 431.682 88L456.5 88H481.318Z" fill="#434040" fill-opacity="0.6"/>
</svg>
