<svg width="869" height="650" viewBox="0 0 869 650" fill="none" xmlns="http://www.w3.org/2000/svg">
<ellipse cx="404.5" cy="264" rx="265.5" ry="264" fill="#C8F5FF"/>
<ellipse cx="404.5" cy="264.5" rx="225.5" ry="224.5" fill="white"/>
<circle cx="405" cy="264" r="171" fill="#FACE03"/>
<ellipse cx="404.5" cy="264" rx="132.5" ry="132" fill="#F47D31"/>
<ellipse cx="287.506" cy="416.258" rx="97.8966" ry="105.92" transform="rotate(31.0563 287.506 416.258)" fill="white"/>
<ellipse cx="150.94" cy="373.48" rx="112.729" ry="100.255" transform="rotate(-47.8168 150.94 373.48)" fill="white"/>
<ellipse cx="611.184" cy="349.846" rx="109.228" ry="112.715" transform="rotate(-37.2801 611.184 349.846)" fill="white"/>
<ellipse cx="739.521" cy="390.726" rx="95.7933" ry="86.3444" transform="rotate(-37.2801 739.521 390.726)" fill="white"/>
<path d="M590.934 394.206C621.336 446.117 609.295 509.686 564.039 536.19C518.783 562.695 457.45 542.099 427.048 490.189C396.646 438.278 408.687 374.709 453.943 348.205C499.199 321.7 560.532 342.296 590.934 394.206Z" fill="white"/>
<ellipse cx="388.248" cy="497.091" rx="114.961" ry="108.926" transform="rotate(-30.356 388.248 497.091)" fill="white"/>
<path d="M354.852 170.971C353.731 169.396 351.545 169.028 349.971 170.148C348.396 171.269 348.028 173.455 349.148 175.029L354.852 170.971ZM370.741 185L369.512 188.277L370.106 188.5H370.741V185ZM379.543 185V188.5H380.183L380.782 188.274L379.543 185ZM389.198 181.348L390.436 184.621L391.095 184.372L391.606 183.887L389.198 181.348ZM400.408 175.54C401.811 174.209 401.87 171.994 400.54 170.592C399.209 169.189 396.994 169.13 395.592 170.46L400.408 175.54ZM349.148 175.029C351.533 178.38 355.609 181.253 359.321 183.409C363.132 185.623 367.032 187.347 369.512 188.277L371.97 181.723C369.812 180.914 366.272 179.351 362.837 177.356C359.304 175.304 356.329 173.046 354.852 170.971L349.148 175.029ZM370.741 188.5H379.543V181.5H370.741V188.5ZM380.782 188.274L390.436 184.621L387.959 178.074L378.305 181.726L380.782 188.274ZM391.606 183.887L400.408 175.54L395.592 170.46L386.789 178.808L391.606 183.887Z" fill="#605C5C"/>
<path d="M411.852 170.971C410.731 169.396 408.545 169.028 406.971 170.148C405.396 171.269 405.028 173.455 406.148 175.029L411.852 170.971ZM427.741 185L426.512 188.277L427.106 188.5H427.741V185ZM436.543 185V188.5H437.183L437.782 188.274L436.543 185ZM446.198 181.348L447.436 184.621L448.095 184.372L448.606 183.887L446.198 181.348ZM457.408 175.54C458.811 174.209 458.87 171.994 457.54 170.592C456.209 169.189 453.994 169.13 452.592 170.46L457.408 175.54ZM406.148 175.029C408.533 178.38 412.609 181.253 416.321 183.409C420.132 185.623 424.032 187.347 426.512 188.277L428.97 181.723C426.812 180.914 423.272 179.351 419.837 177.356C416.304 175.304 413.329 173.046 411.852 170.971L406.148 175.029ZM427.741 188.5H436.543V181.5H427.741V188.5ZM437.782 188.274L447.436 184.621L444.959 178.074L435.305 181.726L437.782 188.274ZM448.606 183.887L457.408 175.54L452.592 170.46L443.789 178.808L448.606 183.887Z" fill="#605C5C"/>
<path d="M482 191C460.073 215.375 437.446 223 403.088 223C368.729 223 345.593 213.875 328 192.875" stroke="#605C5C" stroke-width="7" stroke-linecap="round" stroke-linejoin="round"/>
</svg>
